<svg xmlns="http://www.w3.org/2000/svg" xmlns:cc="http://creativecommons.org/ns#"
    xmlns:dc="http://purl.org/dc/elements/1.1/" xmlns:rdf="http://www.w3.org/1999/02/22-rdf-syntax-ns#" width="507.7"
    height="107.4" version="1.1" viewBox="0 0 134.3 28.41">
    <title>MAPPA Co., Ltd</title>
    <path d="m-39.38 30.2v23.7h4.127v-16.34l8.965 13.23h1.963l8.965-13.23v16.34h16.95v-3.948h-5.146l7.692-14.93 9.726 18.87h10.23v-19.38h12.29c0.1155 0 0.2284 0.01524 0.3378 0.04397 0.1094 0.02874 0.2153 0.07096 0.3163 0.1254 0.101 0.05441 0.1972 0.121 0.2874 0.1981 0.09015 0.0771 0.1742 0.1646 0.2511 0.2614 0.07694 0.09677 0.1467 0.2028 0.208 0.3162 0.06129 0.1134 0.1142 0.2344 0.1575 0.3615 0.04326 0.1271 0.07683 0.2602 0.09966 0.3979 0.02284 0.1377 0.03495 0.2797 0.03495 0.425v1.965c0 0.1453-0.01216 0.2873-0.03495 0.425-0.02284 0.1377-0.0564 0.2708-0.09966 0.3979-0.04326 0.1271-0.09619 0.2481-0.1575 0.3615-0.06129 0.1134-0.131 0.2191-0.208 0.3159-0.07693 0.09678-0.161 0.1845-0.2511 0.2616-0.09016 0.0771-0.1864 0.1437-0.2874 0.1981-0.101 0.05441-0.2068 0.09666-0.3163 0.1254-0.1094 0.02874-0.2224 0.04397-0.3378 0.04397h-9.714v4.321h12.03c2.207 0 4.044-2.311 4.044-5.087v-4.693c0-0.2597-0.01609-0.5153-0.04704-0.7653h2.734v19.38h4.957v-19.38h12.29c0.1155 0 0.2284 0.01525 0.3378 0.04397 0.1094 0.02871 0.2153 0.07096 0.3163 0.1254 0.101 0.05441 0.1972 0.121 0.2874 0.1981 0.09015 0.0771 0.1742 0.1646 0.2511 0.2614 0.07694 0.09677 0.1467 0.2028 0.208 0.3162 0.06129 0.1134 0.1142 0.2344 0.1575 0.3615 0.04327 0.127 0.07685 0.2602 0.09968 0.3979 0.02282 0.1377 0.03495 0.2797 0.03495 0.425v1.965c0 0.1453-0.01212 0.2873-0.03495 0.425-0.02283 0.1377-0.0564 0.2708-0.09968 0.3979-0.04325 0.1271-0.09621 0.2481-0.1575 0.3615-0.06129 0.1134-0.131 0.2191-0.208 0.3159-0.07693 0.09677-0.161 0.1845-0.2511 0.2616-0.09016 0.0771-0.1864 0.1437-0.2874 0.1981-0.101 0.05441-0.2068 0.09666-0.3163 0.1254-0.1094 0.02871-0.2224 0.04397-0.3378 0.04397h-9.714v4.321h12.03c0.2292 0 0.4542-0.02629 0.6738-0.07408l-4.808 8.912h12.73v-3.948h-5.146l7.692-14.93 9.726 18.87h5.551l-12.79-23.7h-4.979l-4.61 8.545v-3.458c0-2.776-1.837-5.087-4.044-5.087h-52.01v4.321h6.163v15.43h-1.854l-10.66-19.76h-4.979l-10.66 19.76h-2.225v-19.76h-4.127l-9.947 14.68-9.947-14.68z"/>
</svg>